# xmcd
#
# Track frame offsets:
#	150
#	23023
#	43415
#	64320
#	86232
#	106007
#	128584
#	149910
#	170565
#	188401
#	216215
#	238417
#	260317
#	282154
#	305567
#
# Disc length: 4440 seconds
#
# Revision: 15
# Processed by: cddbd v1.5.2PL0 Copyright (c) Steve Scherf et al.
# Submitted via: EasyCDDAExtractor 15.3.0.1
#
DISCID=e211560f
DTITLE=Marc Anthony - Desde Un Principio - From The Beginning
DYEAR=1999
DGENRE=Latin
TTITLE0=No Me Ames (A Duo Con Jennifer Lopez)
TTITLE1=Si Tu No Te Fueras
TTITLE2=Necesito Amarte
TTITLE3=Hasta Que Te Conoci
TTITLE4=El Ultimo Beso
TTITLE5=Te Conozco Bien
TTITLE6=Nadie Como Ella
TTITLE7=Te Amare
TTITLE8=Hasta Ayer
TTITLE9=Y Hubo Alguien
TTITLE10=Contra La Corriente
TTITLE11=No Me Conoces
TTITLE12=No Sabes Como Duele
TTITLE13=Preciosa
TTITLE14=Vivir Lo Nuestro (A Duo Con India)
EXTD=YEAR: 1999
EXTT0=
EXTT1=
EXTT2=
EXTT3=
EXTT4=
EXTT5=
EXTT6=
EXTT7=
EXTT8=
EXTT9=
EXTT10=
EXTT11=
EXTT12=
EXTT13=
EXTT14=
PLAYORDER=
